<svg id="visual" viewBox="0 0 1920 1080" width="1920" height="1080" xmlns="http://www.w3.org/2000/svg" xmlns:xlink="http://www.w3.org/1999/xlink" version="1.1"><path d="M0 714L45.7 713.7C91.3 713.3 182.7 712.7 274.2 727.5C365.7 742.3 457.3 772.7 548.8 760.7C640.3 748.7 731.7 694.3 823 680.3C914.3 666.3 1005.7 692.7 1097 716.5C1188.3 740.3 1279.7 761.7 1371.2 767.2C1462.7 772.7 1554.3 762.3 1645.8 743C1737.3 723.7 1828.7 695.3 1874.3 681.2L1920 667L1920 1081L1874.3 1081C1828.7 1081 1737.3 1081 1645.8 1081C1554.3 1081 1462.7 1081 1371.2 1081C1279.7 1081 1188.3 1081 1097 1081C1005.7 1081 914.3 1081 823 1081C731.7 1081 640.3 1081 548.8 1081C457.3 1081 365.7 1081 274.2 1081C182.7 1081 91.3 1081 45.7 1081L0 1081Z" fill="#001122"></path><path d="M0 834L45.7 836.2C91.3 838.3 182.7 842.7 274.2 840.2C365.7 837.7 457.3 828.3 548.8 824.8C640.3 821.3 731.7 823.7 823 812.8C914.3 802 1005.7 778 1097 759.5C1188.3 741 1279.7 728 1371.2 721.8C1462.7 715.7 1554.3 716.3 1645.8 719C1737.3 721.7 1828.7 726.3 1874.3 728.7L1920 731L1920 1081L1874.3 1081C1828.7 1081 1737.3 1081 1645.8 1081C1554.3 1081 1462.7 1081 1371.2 1081C1279.7 1081 1188.3 1081 1097 1081C1005.7 1081 914.3 1081 823 1081C731.7 1081 640.3 1081 548.8 1081C457.3 1081 365.7 1081 274.2 1081C182.7 1081 91.3 1081 45.7 1081L0 1081Z" fill="#002854"></path><path d="M0 855L45.7 865.2C91.3 875.3 182.7 895.7 274.2 892.7C365.7 889.7 457.3 863.3 548.8 856.8C640.3 850.3 731.7 863.7 823 869.3C914.3 875 1005.7 873 1097 860.5C1188.3 848 1279.7 825 1371.2 813C1462.7 801 1554.3 800 1645.8 811.8C1737.3 823.7 1828.7 848.3 1874.3 860.7L1920 873L1920 1081L1874.3 1081C1828.7 1081 1737.3 1081 1645.8 1081C1554.3 1081 1462.7 1081 1371.2 1081C1279.7 1081 1188.3 1081 1097 1081C1005.7 1081 914.3 1081 823 1081C731.7 1081 640.3 1081 548.8 1081C457.3 1081 365.7 1081 274.2 1081C182.7 1081 91.3 1081 45.7 1081L0 1081Z" fill="#003d8a"></path><path d="M0 919L45.7 922.5C91.3 926 182.7 933 274.2 928.5C365.7 924 457.3 908 548.8 896C640.3 884 731.7 876 823 884.2C914.3 892.3 1005.7 916.7 1097 918.5C1188.3 920.3 1279.7 899.7 1371.2 889C1462.7 878.3 1554.3 877.7 1645.8 893.3C1737.3 909 1828.7 941 1874.3 957L1920 973L1920 1081L1874.3 1081C1828.7 1081 1737.3 1081 1645.8 1081C1554.3 1081 1462.7 1081 1371.2 1081C1279.7 1081 1188.3 1081 1097 1081C1005.7 1081 914.3 1081 823 1081C731.7 1081 640.3 1081 548.8 1081C457.3 1081 365.7 1081 274.2 1081C182.7 1081 91.3 1081 45.7 1081L0 1081Z" fill="#374fbf"></path><path d="M0 962L45.7 964.8C91.3 967.7 182.7 973.3 274.2 983.2C365.7 993 457.3 1007 548.8 1009.8C640.3 1012.7 731.7 1004.3 823 994.5C914.3 984.7 1005.7 973.3 1097 972C1188.3 970.7 1279.7 979.3 1371.2 990.8C1462.7 1002.3 1554.3 1016.7 1645.8 1014.3C1737.3 1012 1828.7 993 1874.3 983.5L1920 974L1920 1081L1874.3 1081C1828.7 1081 1737.3 1081 1645.8 1081C1554.3 1081 1462.7 1081 1371.2 1081C1279.7 1081 1188.3 1081 1097 1081C1005.7 1081 914.3 1081 823 1081C731.7 1081 640.3 1081 548.8 1081C457.3 1081 365.7 1081 274.2 1081C182.7 1081 91.3 1081 45.7 1081L0 1081Z" fill="#715df2"></path></svg>