<svg id="visual" viewBox="0 0 1920 1080" width="1920" height="1080" xmlns="http://www.w3.org/2000/svg" xmlns:xlink="http://www.w3.org/1999/xlink" version="1.1"><rect x="0" y="0" width="1920" height="1080" fill="#001220"></rect><path d="M0 930L16 890.7C32 851.3 64 772.7 96 761.5C128 750.3 160 806.7 192 791.8C224 777 256 691 288 704C320 717 352 829 384 828.5C416 828 448 715 480 693.2C512 671.3 544 740.7 576 744.7C608 748.7 640 687.3 672 642.3C704 597.3 736 568.7 768 576.8C800 585 832 630 864 658.2C896 686.3 928 697.7 960 698.5C992 699.3 1024 689.7 1056 706.5C1088 723.3 1120 766.7 1152 760.7C1184 754.7 1216 699.3 1248 720.8C1280 742.3 1312 840.7 1344 872.3C1376 904 1408 869 1440 803.8C1472 738.7 1504 643.3 1536 617.8C1568 592.3 1600 636.7 1632 673.2C1664 709.7 1696 738.3 1728 789.3C1760 840.3 1792 913.7 1824 911.7C1856 909.7 1888 832.3 1904 793.7L1920 755L1920 1081L1904 1081C1888 1081 1856 1081 1824 1081C1792 1081 1760 1081 1728 1081C1696 1081 1664 1081 1632 1081C1600 1081 1568 1081 1536 1081C1504 1081 1472 1081 1440 1081C1408 1081 1376 1081 1344 1081C1312 1081 1280 1081 1248 1081C1216 1081 1184 1081 1152 1081C1120 1081 1088 1081 1056 1081C1024 1081 992 1081 960 1081C928 1081 896 1081 864 1081C832 1081 800 1081 768 1081C736 1081 704 1081 672 1081C640 1081 608 1081 576 1081C544 1081 512 1081 480 1081C448 1081 416 1081 384 1081C352 1081 320 1081 288 1081C256 1081 224 1081 192 1081C160 1081 128 1081 96 1081C64 1081 32 1081 16 1081L0 1081Z" fill="#6984fa"></path><path d="M0 711L16 735.8C32 760.7 64 810.3 96 835C128 859.7 160 859.3 192 848.8C224 838.3 256 817.7 288 814.8C320 812 352 827 384 839.5C416 852 448 862 480 850.8C512 839.7 544 807.3 576 776.3C608 745.3 640 715.7 672 697.2C704 678.7 736 671.3 768 690.7C800 710 832 756 864 748.2C896 740.3 928 678.7 960 656.2C992 633.7 1024 650.3 1056 684.8C1088 719.3 1120 771.7 1152 798.2C1184 824.7 1216 825.3 1248 821.3C1280 817.3 1312 808.7 1344 832C1376 855.3 1408 910.7 1440 889.2C1472 867.7 1504 769.3 1536 761C1568 752.7 1600 834.3 1632 847C1664 859.7 1696 803.3 1728 780C1760 756.7 1792 766.3 1824 744.2C1856 722 1888 668 1904 641L1920 614L1920 1081L1904 1081C1888 1081 1856 1081 1824 1081C1792 1081 1760 1081 1728 1081C1696 1081 1664 1081 1632 1081C1600 1081 1568 1081 1536 1081C1504 1081 1472 1081 1440 1081C1408 1081 1376 1081 1344 1081C1312 1081 1280 1081 1248 1081C1216 1081 1184 1081 1152 1081C1120 1081 1088 1081 1056 1081C1024 1081 992 1081 960 1081C928 1081 896 1081 864 1081C832 1081 800 1081 768 1081C736 1081 704 1081 672 1081C640 1081 608 1081 576 1081C544 1081 512 1081 480 1081C448 1081 416 1081 384 1081C352 1081 320 1081 288 1081C256 1081 224 1081 192 1081C160 1081 128 1081 96 1081C64 1081 32 1081 16 1081L0 1081Z" fill="#3d81e4"></path><path d="M0 810L16 825.5C32 841 64 872 96 875.3C128 878.7 160 854.3 192 814.2C224 774 256 718 288 707.7C320 697.3 352 732.7 384 750.8C416 769 448 770 480 791.2C512 812.3 544 853.7 576 854.5C608 855.3 640 815.7 672 777.7C704 739.7 736 703.3 768 688.5C800 673.7 832 680.3 864 727.7C896 775 928 863 960 879.7C992 896.3 1024 841.7 1056 835.7C1088 829.7 1120 872.3 1152 897.5C1184 922.7 1216 930.3 1248 928.3C1280 926.3 1312 914.7 1344 898C1376 881.3 1408 859.7 1440 842.8C1472 826 1504 814 1536 794.2C1568 774.3 1600 746.7 1632 748.2C1664 749.7 1696 780.3 1728 806.7C1760 833 1792 855 1824 830.5C1856 806 1888 735 1904 699.5L1920 664L1920 1081L1904 1081C1888 1081 1856 1081 1824 1081C1792 1081 1760 1081 1728 1081C1696 1081 1664 1081 1632 1081C1600 1081 1568 1081 1536 1081C1504 1081 1472 1081 1440 1081C1408 1081 1376 1081 1344 1081C1312 1081 1280 1081 1248 1081C1216 1081 1184 1081 1152 1081C1120 1081 1088 1081 1056 1081C1024 1081 992 1081 960 1081C928 1081 896 1081 864 1081C832 1081 800 1081 768 1081C736 1081 704 1081 672 1081C640 1081 608 1081 576 1081C544 1081 512 1081 480 1081C448 1081 416 1081 384 1081C352 1081 320 1081 288 1081C256 1081 224 1081 192 1081C160 1081 128 1081 96 1081C64 1081 32 1081 16 1081L0 1081Z" fill="#107bcb"></path><path d="M0 764L16 785.8C32 807.7 64 851.3 96 881C128 910.7 160 926.3 192 922.7C224 919 256 896 288 870.2C320 844.3 352 815.7 384 819.8C416 824 448 861 480 869.8C512 878.7 544 859.3 576 847C608 834.7 640 829.3 672 849.8C704 870.3 736 916.7 768 944.5C800 972.3 832 981.7 864 949.5C896 917.3 928 843.7 960 812.5C992 781.3 1024 792.7 1056 791.7C1088 790.7 1120 777.3 1152 783C1184 788.7 1216 813.3 1248 816.3C1280 819.3 1312 800.7 1344 785.7C1376 770.7 1408 759.3 1440 759.8C1472 760.3 1504 772.7 1536 769.7C1568 766.7 1600 748.3 1632 766.2C1664 784 1696 838 1728 879C1760 920 1792 948 1824 955.2C1856 962.3 1888 948.7 1904 941.8L1920 935L1920 1081L1904 1081C1888 1081 1856 1081 1824 1081C1792 1081 1760 1081 1728 1081C1696 1081 1664 1081 1632 1081C1600 1081 1568 1081 1536 1081C1504 1081 1472 1081 1440 1081C1408 1081 1376 1081 1344 1081C1312 1081 1280 1081 1248 1081C1216 1081 1184 1081 1152 1081C1120 1081 1088 1081 1056 1081C1024 1081 992 1081 960 1081C928 1081 896 1081 864 1081C832 1081 800 1081 768 1081C736 1081 704 1081 672 1081C640 1081 608 1081 576 1081C544 1081 512 1081 480 1081C448 1081 416 1081 384 1081C352 1081 320 1081 288 1081C256 1081 224 1081 192 1081C160 1081 128 1081 96 1081C64 1081 32 1081 16 1081L0 1081Z" fill="#0074af"></path><path d="M0 785L16 795.8C32 806.7 64 828.3 96 866.3C128 904.3 160 958.7 192 960.7C224 962.7 256 912.3 288 915.3C320 918.3 352 974.7 384 1003.8C416 1033 448 1035 480 1033.2C512 1031.3 544 1025.7 576 1010C608 994.3 640 968.7 672 952.5C704 936.3 736 929.7 768 937.7C800 945.7 832 968.3 864 980.3C896 992.3 928 993.7 960 976.2C992 958.7 1024 922.3 1056 908.5C1088 894.7 1120 903.3 1152 915.7C1184 928 1216 944 1248 943.7C1280 943.3 1312 926.7 1344 911.5C1376 896.3 1408 882.7 1440 900.3C1472 918 1504 967 1536 981.8C1568 996.7 1600 977.3 1632 959C1664 940.7 1696 923.3 1728 922.2C1760 921 1792 936 1824 921C1856 906 1888 861 1904 838.5L1920 816L1920 1081L1904 1081C1888 1081 1856 1081 1824 1081C1792 1081 1760 1081 1728 1081C1696 1081 1664 1081 1632 1081C1600 1081 1568 1081 1536 1081C1504 1081 1472 1081 1440 1081C1408 1081 1376 1081 1344 1081C1312 1081 1280 1081 1248 1081C1216 1081 1184 1081 1152 1081C1120 1081 1088 1081 1056 1081C1024 1081 992 1081 960 1081C928 1081 896 1081 864 1081C832 1081 800 1081 768 1081C736 1081 704 1081 672 1081C640 1081 608 1081 576 1081C544 1081 512 1081 480 1081C448 1081 416 1081 384 1081C352 1081 320 1081 288 1081C256 1081 224 1081 192 1081C160 1081 128 1081 96 1081C64 1081 32 1081 16 1081L0 1081Z" fill="#006a93"></path><path d="M0 909L16 924.2C32 939.3 64 969.7 96 977.5C128 985.3 160 970.7 192 957.7C224 944.7 256 933.3 288 948.3C320 963.3 352 1004.7 384 1015C416 1025.3 448 1004.7 480 976.3C512 948 544 912 576 915.8C608 919.7 640 963.3 672 968.2C704 973 736 939 768 939.3C800 939.7 832 974.3 864 988C896 1001.7 928 994.3 960 971.3C992 948.3 1024 909.7 1056 914.2C1088 918.7 1120 966.3 1152 969.3C1184 972.3 1216 930.7 1248 902.7C1280 874.7 1312 860.3 1344 854C1376 847.7 1408 849.3 1440 875.7C1472 902 1504 953 1536 974.2C1568 995.3 1600 986.7 1632 980.5C1664 974.3 1696 970.7 1728 959.5C1760 948.3 1792 929.7 1824 944.2C1856 958.7 1888 1006.3 1904 1030.2L1920 1054L1920 1081L1904 1081C1888 1081 1856 1081 1824 1081C1792 1081 1760 1081 1728 1081C1696 1081 1664 1081 1632 1081C1600 1081 1568 1081 1536 1081C1504 1081 1472 1081 1440 1081C1408 1081 1376 1081 1344 1081C1312 1081 1280 1081 1248 1081C1216 1081 1184 1081 1152 1081C1120 1081 1088 1081 1056 1081C1024 1081 992 1081 960 1081C928 1081 896 1081 864 1081C832 1081 800 1081 768 1081C736 1081 704 1081 672 1081C640 1081 608 1081 576 1081C544 1081 512 1081 480 1081C448 1081 416 1081 384 1081C352 1081 320 1081 288 1081C256 1081 224 1081 192 1081C160 1081 128 1081 96 1081C64 1081 32 1081 16 1081L0 1081Z" fill="#005e77"></path><path d="M0 1057L16 1051C32 1045 64 1033 96 1010C128 987 160 953 192 959.2C224 965.3 256 1011.7 288 1016.3C320 1021 352 984 384 985.2C416 986.3 448 1025.7 480 1027.2C512 1028.7 544 992.3 576 991C608 989.7 640 1023.3 672 1014.7C704 1006 736 955 768 934.5C800 914 832 924 864 931C896 938 928 942 960 964C992 986 1024 1026 1056 1020.7C1088 1015.3 1120 964.7 1152 942.7C1184 920.7 1216 927.3 1248 948.8C1280 970.3 1312 1006.7 1344 1011.7C1376 1016.7 1408 990.3 1440 992C1472 993.7 1504 1023.3 1536 1023.2C1568 1023 1600 993 1632 984.2C1664 975.3 1696 987.7 1728 980.2C1760 972.7 1792 945.3 1824 950C1856 954.7 1888 991.3 1904 1009.7L1920 1028L1920 1081L1904 1081C1888 1081 1856 1081 1824 1081C1792 1081 1760 1081 1728 1081C1696 1081 1664 1081 1632 1081C1600 1081 1568 1081 1536 1081C1504 1081 1472 1081 1440 1081C1408 1081 1376 1081 1344 1081C1312 1081 1280 1081 1248 1081C1216 1081 1184 1081 1152 1081C1120 1081 1088 1081 1056 1081C1024 1081 992 1081 960 1081C928 1081 896 1081 864 1081C832 1081 800 1081 768 1081C736 1081 704 1081 672 1081C640 1081 608 1081 576 1081C544 1081 512 1081 480 1081C448 1081 416 1081 384 1081C352 1081 320 1081 288 1081C256 1081 224 1081 192 1081C160 1081 128 1081 96 1081C64 1081 32 1081 16 1081L0 1081Z" fill="#00525c"></path><path d="M0 1052L16 1040.3C32 1028.7 64 1005.3 96 1000.3C128 995.3 160 1008.7 192 1014.5C224 1020.3 256 1018.7 288 1009.3C320 1000 352 983 384 973.5C416 964 448 962 480 979.2C512 996.3 544 1032.7 576 1032.8C608 1033 640 997 672 979.2C704 961.3 736 961.7 768 968.5C800 975.3 832 988.7 864 990.5C896 992.3 928 982.7 960 984.7C992 986.7 1024 1000.3 1056 1014C1088 1027.7 1120 1041.3 1152 1035.3C1184 1029.3 1216 1003.7 1248 1003C1280 1002.3 1312 1026.7 1344 1023.7C1376 1020.7 1408 990.3 1440 988.3C1472 986.3 1504 1012.7 1536 1030.3C1568 1048 1600 1057 1632 1047.7C1664 1038.3 1696 1010.7 1728 1006.8C1760 1003 1792 1023 1824 1028.5C1856 1034 1888 1025 1904 1020.5L1920 1016L1920 1081L1904 1081C1888 1081 1856 1081 1824 1081C1792 1081 1760 1081 1728 1081C1696 1081 1664 1081 1632 1081C1600 1081 1568 1081 1536 1081C1504 1081 1472 1081 1440 1081C1408 1081 1376 1081 1344 1081C1312 1081 1280 1081 1248 1081C1216 1081 1184 1081 1152 1081C1120 1081 1088 1081 1056 1081C1024 1081 992 1081 960 1081C928 1081 896 1081 864 1081C832 1081 800 1081 768 1081C736 1081 704 1081 672 1081C640 1081 608 1081 576 1081C544 1081 512 1081 480 1081C448 1081 416 1081 384 1081C352 1081 320 1081 288 1081C256 1081 224 1081 192 1081C160 1081 128 1081 96 1081C64 1081 32 1081 16 1081L0 1081Z" fill="#114444"></path></svg>