<svg id="visual" viewBox="0 0 1920 1080" width="1920" height="1080" xmlns="http://www.w3.org/2000/svg" xmlns:xlink="http://www.w3.org/1999/xlink" version="1.1"><path d="M0 862L91 936L183 724L274 884L366 792L457 701L549 923L640 1002L731 722L823 957L914 961L1006 611L1097 861L1189 996L1280 715L1371 841L1463 653L1554 659L1646 981L1737 791L1829 743L1920 649L1920 1081L1829 1081L1737 1081L1646 1081L1554 1081L1463 1081L1371 1081L1280 1081L1189 1081L1097 1081L1006 1081L914 1081L823 1081L731 1081L640 1081L549 1081L457 1081L366 1081L274 1081L183 1081L91 1081L0 1081Z" fill="#224d75"></path><path d="M0 728L91 907L183 704L274 1014L366 946L457 743L549 1006L640 720L731 828L823 957L914 752L1006 875L1097 829L1189 838L1280 818L1371 628L1463 780L1554 642L1646 924L1737 640L1829 981L1920 969L1920 1081L1829 1081L1737 1081L1646 1081L1554 1081L1463 1081L1371 1081L1280 1081L1189 1081L1097 1081L1006 1081L914 1081L823 1081L731 1081L640 1081L549 1081L457 1081L366 1081L274 1081L183 1081L91 1081L0 1081Z" fill="#1d426a"></path><path d="M0 858L91 982L183 772L274 786L366 931L457 1004L549 803L640 703L731 853L823 786L914 754L1006 718L1097 928L1189 892L1280 1026L1371 729L1463 925L1554 772L1646 885L1737 832L1829 801L1920 934L1920 1081L1829 1081L1737 1081L1646 1081L1554 1081L1463 1081L1371 1081L1280 1081L1189 1081L1097 1081L1006 1081L914 1081L823 1081L731 1081L640 1081L549 1081L457 1081L366 1081L274 1081L183 1081L91 1081L0 1081Z" fill="#19385e"></path><path d="M0 772L91 824L183 822L274 962L366 795L457 951L549 983L640 741L731 756L823 799L914 969L1006 791L1097 817L1189 838L1280 931L1371 896L1463 977L1554 764L1646 1038L1737 1021L1829 948L1920 1017L1920 1081L1829 1081L1737 1081L1646 1081L1554 1081L1463 1081L1371 1081L1280 1081L1189 1081L1097 1081L1006 1081L914 1081L823 1081L731 1081L640 1081L549 1081L457 1081L366 1081L274 1081L183 1081L91 1081L0 1081Z" fill="#142e53"></path><path d="M0 1036L91 843L183 800L274 973L366 981L457 886L549 1016L640 1005L731 923L823 917L914 980L1006 873L1097 796L1189 922L1280 825L1371 889L1463 908L1554 1041L1646 897L1737 900L1829 954L1920 942L1920 1081L1829 1081L1737 1081L1646 1081L1554 1081L1463 1081L1371 1081L1280 1081L1189 1081L1097 1081L1006 1081L914 1081L823 1081L731 1081L640 1081L549 1081L457 1081L366 1081L274 1081L183 1081L91 1081L0 1081Z" fill="#102447"></path><path d="M0 911L91 1009L183 971L274 1002L366 930L457 855L549 959L640 912L731 1022L823 892L914 1001L1006 1034L1097 1055L1189 905L1280 934L1371 903L1463 928L1554 1052L1646 944L1737 897L1829 1054L1920 1049L1920 1081L1829 1081L1737 1081L1646 1081L1554 1081L1463 1081L1371 1081L1280 1081L1189 1081L1097 1081L1006 1081L914 1081L823 1081L731 1081L640 1081L549 1081L457 1081L366 1081L274 1081L183 1081L91 1081L0 1081Z" fill="#0b1b3c"></path><path d="M0 1002L91 919L183 945L274 953L366 992L457 959L549 1033L640 975L731 956L823 998L914 928L1006 1031L1097 962L1189 1002L1280 1027L1371 982L1463 1021L1554 1029L1646 989L1737 943L1829 991L1920 941L1920 1081L1829 1081L1737 1081L1646 1081L1554 1081L1463 1081L1371 1081L1280 1081L1189 1081L1097 1081L1006 1081L914 1081L823 1081L731 1081L640 1081L549 1081L457 1081L366 1081L274 1081L183 1081L91 1081L0 1081Z" fill="#081131"></path><path d="M0 1013L91 1028L183 1063L274 1027L366 1033L457 1063L549 1032L640 966L731 1000L823 1071L914 1061L1006 985L1097 1039L1189 999L1280 1003L1371 992L1463 967L1554 971L1646 1033L1737 1071L1829 1047L1920 1028L1920 1081L1829 1081L1737 1081L1646 1081L1554 1081L1463 1081L1371 1081L1280 1081L1189 1081L1097 1081L1006 1081L914 1081L823 1081L731 1081L640 1081L549 1081L457 1081L366 1081L274 1081L183 1081L91 1081L0 1081Z" fill="#050127"></path></svg>